<svg width="368" height="479" viewBox="0 0 368 479" fill="none" xmlns="http://www.w3.org/2000/svg">
<defs>
<radialGradient id="paint0_radial_9_7" cx="0" cy="0" r="1" gradientUnits="userSpaceOnUse" gradientTransform="translate(144.206 124.305) rotate(48.0043) scale(325.864 250.446)">
<stop offset="0.162967" stop-color="#E7DCF4"/>
<stop offset="0.362197" stop-color="#CDC3DB"/>
<stop offset="0.9375" stop-color="#292929"/>
<stop offset="1" stop-color="#292929"/>
</radialGradient>
<radialGradient id="paint1_radial_9_7" cx="0" cy="0" r="1" gradientUnits="userSpaceOnUse" gradientTransform="translate(144.206 124.305) rotate(48.0043) scale(325.864 250.446)">
<stop offset="0.0572917" stop-color="#D1D1D1"/>
<stop offset="0.362197" stop-color="#616161"/>
<stop offset="0.9375" stop-color="#292929"/>
<stop offset="1" stop-color="#292929"/>
</radialGradient>
<radialGradient id="paint2_radial_9_7" cx="0" cy="0" r="1" gradientUnits="userSpaceOnUse" gradientTransform="translate(287.41 253.459) rotate(48.0962) scale(116.38 89.4142)">
<stop offset="0.0833333" stop-color="#E1EEF5"/>
<stop offset="0.362197" stop-color="#8A9397"/>
<stop offset="0.9375" stop-color="#292929"/>
<stop offset="1" stop-color="#292929"/>
</radialGradient>
</defs>
<path d="M285.859 84.4853C314.581 77.6964 352.225 81.6566 367.456 84.4853V2.23538C300.873 -2.98684 265.418 -0.141733 206.22 22.4714C131.909 50.8579 89.5413 83.0771 48.248 151.069C11.9486 210.837 -9.96881 256.295 4.51192 324.707C18.5649 391.099 97.859 455.263 109.609 463.096C119.009 469.363 133.979 475.716 140.29 478.11C104.387 442.207 80.2341 357.346 84.8035 296.638C89.373 235.93 123.317 177.18 167.053 139.319C210.789 101.457 249.956 92.9714 285.859 84.4853Z" fill="url(#paint0_radial_9_7)"/>
<path d="M311.041 176.137C330.739 171.465 356.554 174.19 367 176.137V119.538C321.337 115.945 297.023 117.902 256.425 133.463C205.462 152.997 176.407 175.168 148.088 221.954C123.194 263.083 108.163 294.363 118.094 341.44C127.732 387.125 182.111 431.278 190.169 436.669C196.616 440.981 206.883 445.353 211.21 447C186.588 422.294 170.024 363.899 173.158 322.124C176.292 280.349 199.571 239.922 229.565 213.869C259.559 187.816 286.419 181.976 311.041 176.137Z" fill="url(#paint1_radial_9_7)"/>
<path d="M337.91 239.217C348.15 236.789 361.57 238.205 367 239.217V209.799C343.263 207.932 330.623 208.949 309.519 217.037C283.026 227.19 267.922 238.713 253.201 263.031C240.26 284.408 232.446 300.666 237.609 325.134C242.618 348.88 270.887 371.829 275.076 374.63C278.427 376.871 283.764 379.144 286.014 380C273.214 367.159 264.604 336.808 266.233 315.095C267.862 293.382 279.963 272.37 295.555 258.828C311.148 245.287 325.111 242.252 337.91 239.217Z" fill="url(#paint2_radial_9_7)"/>
</svg>
