<svg width="24" height="24" viewBox="0 0 24 24" fill="none" xmlns="http://www.w3.org/2000/svg">
<path d="M1 5C1.552 5 2 4.552 2 4V3C2 2.449 2.449 2 3 2H4C4.552 2 5 1.552 5 1C5 0.448 4.552 0 4 0H3C1.346 0 0 1.346 0 3V4C0 4.552 0.448 5 1 5ZM21 0H20C19.448 0 19 0.448 19 1C19 1.552 19.448 2 20 2H21C21.551 2 22 2.449 22 3V4C22 4.552 22.448 5 23 5C23.552 5 24 4.552 24 4V3C24 1.346 22.654 0 21 0ZM4 22H3C2.449 22 2 21.552 2 21V20C2 19.447 1.552 19 1 19C0.448 19 0 19.447 0 20V21C0 22.654 1.346 24 3 24H4C4.552 24 5 23.553 5 23C5 22.447 4.552 22 4 22ZM23 19C22.448 19 22 19.447 22 20V21C22 21.552 21.551 22 21 22H20C19.448 22 19 22.447 19 23C19 23.553 19.448 24 20 24H21C22.654 24 24 22.654 24 21V20C24 19.447 23.552 19 23 19Z" fill="black"/>
</svg>
